# Blender 3.5.0
# www.blender.org
o Frame
v -11.481524 11.481524 -1.565662
v -9.393973 9.393974 -1.565662
v 11.481524 11.481524 -1.565663
v 9.393973 9.393974 -1.565663
v -11.481524 11.481524 1.565663
v -9.393973 9.393974 1.565663
v 11.481524 11.481524 1.565662
v 9.393973 9.393974 1.565662
v -9.393973 -9.393972 -1.565662
v -9.393973 -9.393972 1.565663
v 9.393973 -9.393972 1.565662
v 9.393973 -9.393972 -1.565663
v -11.481524 -11.481523 -1.565662
v -11.481524 -11.481523 1.565663
v 11.481524 -11.481523 1.565662
v 11.481524 -11.481523 -1.565663
vn -0.0000 1.0000 -0.0000
vn -0.0000 -0.0000 1.0000
vn -0.0000 -1.0000 -0.0000
vn -0.0000 -0.0000 -1.0000
vn 1.0000 -0.0000 -0.0000
vn -1.0000 -0.0000 -0.0000
s 0
f 5//1 3//1 1//1
f 7//2 6//2 8//2
f 2//3 8//3 6//3
f 1//4 4//4 2//4
f 6//5 9//5 2//5
f 7//5 16//5 3//5
f 1//6 14//6 5//6
f 4//6 11//6 8//6
f 2//4 13//4 1//4
f 3//4 12//4 4//4
f 8//2 15//2 7//2
f 5//2 10//2 6//2
f 11//2 14//2 15//2
f 10//1 12//1 9//1
f 16//3 14//3 13//3
f 12//4 13//4 9//4
f 5//1 7//1 3//1
f 7//2 5//2 6//2
f 2//3 4//3 8//3
f 1//4 3//4 4//4
f 6//5 10//5 9//5
f 7//5 15//5 16//5
f 1//6 13//6 14//6
f 4//6 12//6 11//6
f 2//4 9//4 13//4
f 3//4 16//4 12//4
f 8//2 11//2 15//2
f 5//2 14//2 10//2
f 11//2 10//2 14//2
f 10//1 11//1 12//1
f 16//3 15//3 14//3
f 12//4 16//4 13//4
