# Blender 3.5.0
# www.blender.org
o X
v 0.000000 -1.133724 0.373688
v 1.133724 0.000000 0.373687
v -1.133724 0.000000 0.373688
v 0.000000 1.133724 0.373688
v 0.000000 -1.133724 -0.373688
v 1.133724 0.000000 -0.373688
v -1.133724 0.000000 -0.373687
v 0.000000 1.133724 -0.373688
v 1.133724 -2.267448 0.373688
v 2.267448 -1.133724 0.373687
v 2.267448 -1.133724 -0.373688
v 1.133724 -2.267448 -0.373688
v -1.133724 2.267448 0.373688
v -2.267448 1.133724 0.373688
v -2.267448 1.133724 -0.373687
v -1.133724 2.267448 -0.373688
v 2.267448 1.133724 0.373687
v 1.133724 2.267448 0.373688
v 1.133724 2.267448 -0.373688
v 2.267448 1.133724 -0.373688
v -2.267448 -1.133724 0.373688
v -1.133724 -2.267448 0.373688
v -2.267448 -1.133724 -0.373687
v -1.133724 -2.267448 -0.373688
vn -0.0000 -0.0000 1.0000
vn -0.7071 -0.7071 -0.0000
vn -0.0000 -0.0000 -1.0000
vn 0.7071 0.7071 -0.0000
vn -0.7071 0.7071 -0.0000
vn 0.7071 -0.7071 -0.0000
s 0
f 2//1 3//1 1//1
f 3//2 15//2 7//2
f 8//3 5//3 7//3
f 2//4 11//4 6//4
f 7//5 21//5 3//5
f 2//1 18//1 4//1
f 11//6 9//6 12//6
f 6//3 12//3 5//3
f 1//1 10//1 2//1
f 5//2 9//2 1//2
f 13//5 15//5 14//5
f 8//4 13//4 4//4
f 4//1 14//1 3//1
f 7//3 16//3 8//3
f 18//4 20//4 19//4
f 6//6 17//6 2//6
f 4//5 19//5 8//5
f 8//3 20//3 6//3
f 23//2 22//2 21//2
f 3//1 22//1 1//1
f 5//3 23//3 7//3
f 1//6 24//6 5//6
f 2//1 4//1 3//1
f 3//2 14//2 15//2
f 8//3 6//3 5//3
f 2//4 10//4 11//4
f 7//5 23//5 21//5
f 2//1 17//1 18//1
f 11//6 10//6 9//6
f 6//3 11//3 12//3
f 1//1 9//1 10//1
f 5//2 12//2 9//2
f 13//5 16//5 15//5
f 8//4 16//4 13//4
f 4//1 13//1 14//1
f 7//3 15//3 16//3
f 18//4 17//4 20//4
f 6//6 20//6 17//6
f 4//5 18//5 19//5
f 8//3 19//3 20//3
f 23//2 24//2 22//2
f 3//1 21//1 22//1
f 5//3 24//3 23//3
f 1//6 22//6 24//6
o O
v 0.746956 -0.746956 0.373688
v 0.746956 0.746956 0.373688
v -0.746956 -0.746956 0.373688
v -0.746956 0.746956 0.373688
v 0.746956 -0.746956 -0.373688
v 0.746956 0.746956 -0.373688
v -0.746956 -0.746956 -0.373688
v -0.746956 0.746956 -0.373688
v 2.240869 2.240869 0.373687
v -2.240869 2.240869 0.373688
v -2.240869 2.240869 -0.373687
v 2.240869 2.240869 -0.373688
v -2.240869 -2.240869 0.373688
v 2.240869 -2.240869 0.373687
v -2.240869 -2.240869 -0.373687
v 2.240869 -2.240869 -0.373688
vn -0.0000 -0.0000 1.0000
vn -0.0000 1.0000 -0.0000
vn -0.0000 -0.0000 -1.0000
vn -0.0000 -1.0000 -0.0000
vn 1.0000 -0.0000 -0.0000
vn -1.0000 -0.0000 -0.0000
s 0
f 26//7 34//7 28//7
f 34//8 36//8 35//8
f 32//9 36//9 30//9
f 39//10 38//10 37//10
f 27//7 38//7 25//7
f 29//9 39//9 31//9
f 33//11 40//11 36//11
f 36//9 29//9 30//9
f 26//7 38//7 33//7
f 35//12 37//12 34//12
f 37//7 28//7 34//7
f 32//9 39//9 35//9
f 31//11 28//11 27//11
f 28//10 30//10 26//10
f 25//12 30//12 29//12
f 25//8 31//8 27//8
f 26//7 33//7 34//7
f 34//8 33//8 36//8
f 32//9 35//9 36//9
f 39//10 40//10 38//10
f 27//7 37//7 38//7
f 29//9 40//9 39//9
f 33//11 38//11 40//11
f 36//9 40//9 29//9
f 26//7 25//7 38//7
f 35//12 39//12 37//12
f 37//7 27//7 28//7
f 32//9 31//9 39//9
f 31//11 32//11 28//11
f 28//10 32//10 30//10
f 25//12 26//12 30//12
f 25//8 29//8 31//8
o Frame
v -11.481524 11.481524 -1.565662
v -9.393973 9.393974 -1.565662
v 11.481524 11.481524 -1.565663
v 9.393973 9.393974 -1.565663
v -11.481524 11.481524 1.565663
v -9.393973 9.393974 1.565663
v 11.481524 11.481524 1.565662
v 9.393973 9.393974 1.565662
v -9.393973 -9.393972 -1.565662
v -9.393973 -9.393972 1.565663
v 9.393973 -9.393972 1.565662
v 9.393973 -9.393972 -1.565663
v -11.481524 -11.481523 -1.565662
v -11.481524 -11.481523 1.565663
v 11.481524 -11.481523 1.565662
v 11.481524 -11.481523 -1.565663
vn -0.0000 1.0000 -0.0000
vn -0.0000 -0.0000 1.0000
vn -0.0000 -1.0000 -0.0000
vn -0.0000 -0.0000 -1.0000
vn 1.0000 -0.0000 -0.0000
vn -1.0000 -0.0000 -0.0000
s 0
f 45//13 43//13 41//13
f 47//14 46//14 48//14
f 42//15 48//15 46//15
f 41//16 44//16 42//16
f 46//17 49//17 42//17
f 47//17 56//17 43//17
f 41//18 54//18 45//18
f 44//18 51//18 48//18
f 42//16 53//16 41//16
f 43//16 52//16 44//16
f 48//14 55//14 47//14
f 45//14 50//14 46//14
f 51//14 54//14 55//14
f 50//13 52//13 49//13
f 56//15 54//15 53//15
f 52//16 53//16 49//16
f 45//13 47//13 43//13
f 47//14 45//14 46//14
f 42//15 44//15 48//15
f 41//16 43//16 44//16
f 46//17 50//17 49//17
f 47//17 55//17 56//17
f 41//18 53//18 54//18
f 44//18 52//18 51//18
f 42//16 49//16 53//16
f 43//16 56//16 52//16
f 48//14 51//14 55//14
f 45//14 54//14 50//14
f 51//14 50//14 54//14
f 50//13 51//13 52//13
f 56//15 55//15 54//15
f 52//16 56//16 53//16
o Cover
v -2.811979 -2.811979 -0.962136
v 2.811979 -2.811979 -0.962136
v -2.811979 2.811979 -0.962136
v 2.811979 2.811979 -0.962136
vn -0.0000 -0.0000 1.0000
s 0
f 58//19 59//19 57//19
f 58//19 60//19 59//19
