# Blender 3.5.0
# www.blender.org
o X
v 0.000000 -1.133724 0.373688
v 1.133724 0.000000 0.373687
v -1.133724 0.000000 0.373688
v 0.000000 1.133724 0.373688
v 0.000000 -1.133724 -0.373688
v 1.133724 -0.000000 -0.373688
v -1.133724 -0.000000 -0.373687
v 0.000000 1.133724 -0.373688
v 1.133724 -2.267448 0.373688
v 2.267448 -1.133724 0.373687
v 2.267448 -1.133724 -0.373688
v 1.133724 -2.267448 -0.373688
v -1.133724 2.267448 0.373688
v -2.267448 1.133724 0.373688
v -2.267448 1.133724 -0.373687
v -1.133724 2.267448 -0.373688
v 2.267448 1.133724 0.373687
v 1.133724 2.267448 0.373688
v 1.133724 2.267448 -0.373688
v 2.267448 1.133724 -0.373688
v -2.267448 -1.133724 0.373688
v -1.133724 -2.267448 0.373688
v -2.267448 -1.133724 -0.373687
v -1.133724 -2.267448 -0.373688
vn -0.0000 -0.0000 1.0000
vn -0.7071 -0.7071 -0.0000
vn -0.0000 -0.0000 -1.0000
vn 0.7071 0.7071 -0.0000
vn -0.7071 0.7071 -0.0000
vn 0.7071 -0.7071 -0.0000
s 0
f 2//1 3//1 1//1
f 3//2 15//2 7//2
f 8//3 5//3 7//3
f 2//4 11//4 6//4
f 7//5 21//5 3//5
f 2//1 18//1 4//1
f 11//6 9//6 12//6
f 6//3 12//3 5//3
f 1//1 10//1 2//1
f 5//2 9//2 1//2
f 13//5 15//5 14//5
f 8//4 13//4 4//4
f 4//1 14//1 3//1
f 7//3 16//3 8//3
f 18//4 20//4 19//4
f 6//6 17//6 2//6
f 4//5 19//5 8//5
f 8//3 20//3 6//3
f 23//2 22//2 21//2
f 3//1 22//1 1//1
f 5//3 23//3 7//3
f 1//6 24//6 5//6
f 2//1 4//1 3//1
f 3//2 14//2 15//2
f 8//3 6//3 5//3
f 2//4 10//4 11//4
f 7//5 23//5 21//5
f 2//1 17//1 18//1
f 11//6 10//6 9//6
f 6//3 11//3 12//3
f 1//1 9//1 10//1
f 5//2 12//2 9//2
f 13//5 16//5 15//5
f 8//4 16//4 13//4
f 4//1 13//1 14//1
f 7//3 15//3 16//3
f 18//4 17//4 20//4
f 6//6 20//6 17//6
f 4//5 18//5 19//5
f 8//3 19//3 20//3
f 23//2 24//2 22//2
f 3//1 21//1 22//1
f 5//3 24//3 23//3
f 1//6 22//6 24//6
